<mxfile host="app.diagrams.net" modified="2024-05-15T13:28:27.207Z" agent="Mozilla/5.0 (Windows NT 10.0; Win64; x64; rv:125.0) Gecko/20100101 Firefox/125.0" etag="QTmGzBaET8uZwIgR-pay" version="24.4.0" type="device">
  <diagram name="Page-1" id="MDOG9IgaUHZ49Tw-9Knz">
    <mxGraphModel dx="1434" dy="726" grid="1" gridSize="10" guides="1" tooltips="1" connect="1" arrows="1" fold="1" page="1" pageScale="1" pageWidth="827" pageHeight="1169" math="0" shadow="0">
      <root>
        <mxCell id="0" />
        <mxCell id="1" parent="0" />
        <mxCell id="lQVFndL8oriIj6wegcRX-1" value="Algorithme de commande multi-moteurs" style="ellipse;whiteSpace=wrap;html=1;" vertex="1" parent="1">
          <mxGeometry x="340" y="320" width="120" height="80" as="geometry" />
        </mxCell>
        <mxCell id="lQVFndL8oriIj6wegcRX-2" value="Ordinateur (expérimentateur)" style="ellipse;whiteSpace=wrap;html=1;" vertex="1" parent="1">
          <mxGeometry x="150" y="250" width="100" height="40" as="geometry" />
        </mxCell>
        <mxCell id="lQVFndL8oriIj6wegcRX-3" value="Moteurs de la maquette" style="ellipse;whiteSpace=wrap;html=1;" vertex="1" parent="1">
          <mxGeometry x="520" y="250" width="100" height="40" as="geometry" />
        </mxCell>
        <mxCell id="lQVFndL8oriIj6wegcRX-4" value="&lt;div&gt;Nombre de moteurs&lt;/div&gt;" style="ellipse;whiteSpace=wrap;html=1;" vertex="1" parent="1">
          <mxGeometry x="530" y="440" width="100" height="40" as="geometry" />
        </mxCell>
        <mxCell id="lQVFndL8oriIj6wegcRX-5" value="Position des moteurs" style="ellipse;whiteSpace=wrap;html=1;" vertex="1" parent="1">
          <mxGeometry x="410" y="480" width="100" height="40" as="geometry" />
        </mxCell>
        <mxCell id="lQVFndL8oriIj6wegcRX-6" value="Paramètres du véhicule" style="ellipse;whiteSpace=wrap;html=1;" vertex="1" parent="1">
          <mxGeometry x="270" y="490" width="100" height="40" as="geometry" />
        </mxCell>
        <mxCell id="lQVFndL8oriIj6wegcRX-7" value="" style="curved=1;endArrow=classic;html=1;rounded=0;entryX=0;entryY=1;entryDx=0;entryDy=0;exitX=1;exitY=1;exitDx=0;exitDy=0;" edge="1" parent="1" source="lQVFndL8oriIj6wegcRX-2" target="lQVFndL8oriIj6wegcRX-3">
          <mxGeometry width="50" height="50" relative="1" as="geometry">
            <mxPoint x="390" y="370" as="sourcePoint" />
            <mxPoint x="440" y="320" as="targetPoint" />
            <Array as="points">
              <mxPoint x="270" y="330" />
              <mxPoint x="480" y="340" />
            </Array>
          </mxGeometry>
        </mxCell>
        <mxCell id="lQVFndL8oriIj6wegcRX-8" value="" style="curved=1;endArrow=classic;html=1;rounded=0;entryX=0;entryY=1;entryDx=0;entryDy=0;exitX=0.5;exitY=0;exitDx=0;exitDy=0;" edge="1" parent="1" source="lQVFndL8oriIj6wegcRX-6" target="lQVFndL8oriIj6wegcRX-1">
          <mxGeometry width="50" height="50" relative="1" as="geometry">
            <mxPoint x="390" y="370" as="sourcePoint" />
            <mxPoint x="440" y="320" as="targetPoint" />
            <Array as="points">
              <mxPoint x="350" y="450" />
            </Array>
          </mxGeometry>
        </mxCell>
        <mxCell id="lQVFndL8oriIj6wegcRX-9" value="" style="curved=1;endArrow=classic;html=1;rounded=0;entryX=0.5;entryY=1;entryDx=0;entryDy=0;exitX=0.5;exitY=0;exitDx=0;exitDy=0;" edge="1" parent="1" source="lQVFndL8oriIj6wegcRX-5" target="lQVFndL8oriIj6wegcRX-1">
          <mxGeometry width="50" height="50" relative="1" as="geometry">
            <mxPoint x="330" y="500" as="sourcePoint" />
            <mxPoint x="368" y="398" as="targetPoint" />
            <Array as="points">
              <mxPoint x="420" y="470" />
            </Array>
          </mxGeometry>
        </mxCell>
        <mxCell id="lQVFndL8oriIj6wegcRX-10" value="" style="curved=1;endArrow=classic;html=1;rounded=0;entryX=1;entryY=0.5;entryDx=0;entryDy=0;exitX=0.5;exitY=0;exitDx=0;exitDy=0;" edge="1" parent="1" source="lQVFndL8oriIj6wegcRX-4" target="lQVFndL8oriIj6wegcRX-1">
          <mxGeometry width="50" height="50" relative="1" as="geometry">
            <mxPoint x="340" y="510" as="sourcePoint" />
            <mxPoint x="378" y="408" as="targetPoint" />
            <Array as="points">
              <mxPoint x="560" y="370" />
            </Array>
          </mxGeometry>
        </mxCell>
        <mxCell id="lQVFndL8oriIj6wegcRX-11" value="Tests" style="rounded=0;whiteSpace=wrap;html=1;" vertex="1" parent="1">
          <mxGeometry x="360" y="240" width="70" height="20" as="geometry" />
        </mxCell>
      </root>
    </mxGraphModel>
  </diagram>
</mxfile>
